<?xml version="1.0" standalone="no"?>
<!DOCTYPE svg PUBLIC "-//W3C//DTD SVG 20010904//EN"
 "http://www.w3.org/TR/2001/REC-SVG-20010904/DTD/svg10.dtd">
<svg version="1.0" xmlns="http://www.w3.org/2000/svg"
 width="1024.000000pt" height="1024.000000pt" viewBox="0 0 1024.000000 1024.000000"
 preserveAspectRatio="xMidYMid meet">
<metadata>
Created by potrace 1.11, written by Peter Selinger 2001-2013
</metadata>
<g transform="translate(0.000000,1024.000000) scale(0.100000,-0.100000)"
fill="#000000" stroke="none">
<path d="M4766 7718 c-69 -9 -124 -41 -154 -90 -19 -30 -29 -60 -81 -233 -10
-33 -40 -130 -66 -215 l-47 -155 -582 0 c-513 -1 -845 -7 -1056 -20 -36 -2
-123 -7 -195 -10 -71 -3 -150 -8 -175 -10 -25 -2 -81 -7 -125 -10 -345 -26
-352 -29 -496 -230 -182 -252 -300 -437 -482 -755 -68 -119 -298 -602 -311
-655 -3 -11 -5 -15 -43 -110 -14 -33 -26 -67 -28 -75 -2 -8 -19 -60 -39 -115
-58 -165 -139 -455 -160 -575 -3 -14 -5 -25 -6 -25 -1 0 -3 -9 -5 -20 -2 -11
-8 -45 -14 -75 -6 -30 -13 -68 -15 -85 -14 -85 -26 -165 -31 -210 -4 -27 -8
-61 -10 -75 -5 -35 -15 -125 -21 -190 -11 -124 -13 -618 -3 -680 20 -130 77
-193 204 -229 38 -11 280 -53 375 -66 25 -3 52 -8 60 -10 8 -2 43 -7 78 -10
35 -4 76 -10 92 -15 16 -4 30 -6 33 -4 2 2 28 0 58 -6 30 -5 81 -12 114 -15
33 -3 69 -7 80 -9 11 -2 50 -7 87 -10 37 -4 77 -9 90 -11 13 -2 55 -6 93 -10
39 -4 84 -8 100 -10 17 -3 62 -7 100 -10 39 -4 86 -8 105 -10 19 -2 69 -6 110
-9 41 -4 95 -8 120 -11 25 -2 86 -7 135 -10 50 -3 106 -8 125 -10 19 -2 85 -7
145 -10 61 -3 133 -8 160 -10 28 -2 104 -7 170 -10 66 -4 143 -8 170 -10 28
-2 113 -6 190 -9 235 -11 325 -15 450 -21 66 -4 206 -8 310 -10 105 -2 260 -7
345 -10 152 -5 186 -7 420 -22 63 -4 171 -7 240 -7 108 -1 130 2 165 20 54 28
87 81 120 189 70 234 98 323 110 360 7 22 18 58 24 80 l10 40 563 1 c593 0
858 6 1263 29 144 8 212 13 430 30 192 16 239 39 338 170 219 290 466 694 642
1050 231 466 387 921 479 1390 27 141 28 146 50 310 15 108 17 132 33 305 4
47 7 211 7 365 0 314 -8 364 -67 425 -64 65 -106 79 -384 125 -12 2 -57 9
-100 15 -43 6 -89 13 -103 16 -40 7 -249 35 -370 50 -25 3 -79 9 -120 14 -127
15 -163 19 -210 24 -61 7 -144 15 -207 21 -150 14 -195 18 -328 30 -33 3 -91
7 -130 10 -141 9 -231 16 -275 20 -25 2 -101 7 -170 10 -69 3 -136 8 -150 10
-14 2 -92 7 -175 10 -82 4 -175 8 -205 10 -30 2 -120 6 -200 9 -80 4 -181 9
-225 11 -44 3 -188 7 -320 10 -132 3 -285 8 -340 10 -279 11 -413 17 -440 20
-16 2 -82 7 -145 10 -63 4 -117 8 -120 9 -3 1 -32 -1 -64 -6z m2614 -962 c36
-4 81 -9 100 -11 19 -2 60 -7 90 -10 53 -6 97 -11 170 -20 19 -3 53 -7 75 -9
22 -3 78 -10 125 -15 47 -6 110 -13 140 -16 30 -3 66 -8 80 -10 14 -2 54 -6
90 -10 36 -4 76 -8 90 -10 14 -2 50 -7 80 -10 127 -16 211 -74 238 -162 11
-35 10 -256 -1 -308 -3 -11 -8 -45 -11 -76 -4 -31 -9 -67 -11 -80 -3 -13 -7
-41 -11 -64 -3 -22 -9 -58 -14 -80 -5 -22 -12 -55 -15 -74 -3 -19 -7 -37 -9
-40 -2 -3 -7 -22 -10 -41 -11 -68 -16 -88 -55 -226 -100 -350 -273 -807 -339
-894 -75 -100 -169 -150 -307 -164 -121 -13 -447 -20 -930 -20 -574 0 -875 7
-1215 29 -200 12 -385 22 -585 30 -66 3 -169 7 -230 10 -60 3 -164 7 -230 10
-144 6 -274 13 -375 20 -41 3 -113 7 -160 10 -96 5 -211 13 -315 21 -38 3 -88
7 -110 9 -292 24 -354 17 -419 -48 -23 -23 -49 -59 -59 -79 -13 -28 -113 -391
-132 -478 -5 -25 -85 -331 -101 -388 -13 -46 -17 -52 -37 -48 -12 3 -53 8 -92
11 -38 4 -83 8 -100 10 -16 2 -75 9 -130 15 -94 10 -123 14 -220 26 -44 5 -63
7 -205 24 -52 6 -108 13 -125 15 -16 2 -57 7 -90 10 -33 3 -71 8 -85 10 -14 3
-53 7 -87 10 -165 15 -256 79 -278 195 -11 65 -7 183 11 305 10 70 13 89 19
135 26 196 114 549 195 790 82 241 202 539 245 605 79 124 200 181 405 191
306 14 1023 19 1405 10 242 -7 508 -16 575 -21 219 -16 520 -31 996 -50 51 -2
141 -6 200 -9 60 -4 150 -9 199 -11 120 -6 267 -15 335 -20 30 -2 100 -7 155
-10 55 -4 116 -8 135 -10 285 -26 360 -26 420 2 57 26 97 66 122 123 18 41 72
228 83 290 3 14 16 66 30 115 13 50 47 180 75 289 28 110 53 203 56 207 5 8
22 7 154 -5z"/>
</g>
</svg>
