<?xml version="1.0" standalone="no"?>
<!DOCTYPE svg PUBLIC "-//W3C//DTD SVG 20010904//EN"
 "http://www.w3.org/TR/2001/REC-SVG-20010904/DTD/svg10.dtd">
<svg version="1.0" xmlns="http://www.w3.org/2000/svg"
 width="2000.000000pt" height="2000.000000pt" viewBox="0 0 2000.000000 2000.000000"
 preserveAspectRatio="xMidYMid meet">
<metadata>
Created by potrace 1.11, written by Peter Selinger 2001-2013
</metadata>
<g transform="translate(0.000000,2000.000000) scale(0.100000,-0.100000)"
fill="#000000" stroke="none">
<path d="M9217 15633 c-1 0 -87 -4 -192 -8 -104 -3 -212 -8 -240 -10 -27 -2
-93 -6 -145 -9 -114 -7 -273 -20 -380 -31 -19 -2 -64 -7 -100 -10 -36 -3 -76
-8 -90 -10 -14 -2 -54 -7 -90 -10 -36 -4 -96 -11 -135 -16 -38 -5 -88 -12
-110 -15 -74 -8 -120 -15 -175 -24 -30 -5 -73 -11 -96 -14 -22 -2 -67 -9 -100
-15 -32 -6 -75 -13 -94 -16 -72 -12 -267 -47 -335 -60 -38 -8 -86 -17 -105
-20 -125 -22 -507 -108 -763 -171 -122 -31 -226 -57 -232 -58 -5 -1 -57 -15
-115 -30 -318 -86 -427 -136 -543 -251 -59 -57 -129 -157 -160 -227 -9 -21
-24 -53 -32 -70 -48 -108 -395 -1104 -420 -1208 -2 -8 -38 -125 -80 -260 -42
-135 -85 -274 -95 -310 -159 -556 -191 -668 -195 -685 -2 -11 -13 -54 -25 -95
-12 -41 -23 -82 -25 -91 -2 -9 -24 -92 -48 -185 -55 -207 -118 -451 -123 -481
-2 -12 -9 -34 -14 -48 -5 -14 -7 -25 -5 -25 2 0 0 -11 -5 -25 -5 -14 -12 -36
-14 -48 -7 -37 -45 -200 -56 -237 -9 -31 -62 -256 -76 -319 -7 -36 -33 -147
-54 -236 -10 -44 -21 -91 -23 -105 -3 -14 -10 -45 -17 -70 -7 -25 -14 -56 -17
-70 -2 -14 -15 -72 -28 -130 -13 -58 -27 -121 -30 -140 -3 -19 -12 -60 -20
-90 -8 -30 -16 -66 -19 -80 -2 -14 -19 -90 -36 -170 -17 -80 -44 -208 -61
-285 -16 -77 -32 -149 -34 -160 -3 -11 -14 -65 -25 -120 -11 -55 -22 -109 -24
-120 -27 -123 -77 -365 -81 -385 -3 -14 -7 -34 -9 -45 -3 -11 -18 -87 -35
-170 -17 -82 -58 -283 -91 -445 -34 -162 -75 -362 -91 -445 -17 -82 -32 -159
-35 -170 -11 -57 -66 -323 -70 -340 -2 -11 -6 -29 -8 -40 -2 -11 -19 -90 -36
-175 -17 -85 -33 -162 -35 -170 -48 -225 -68 -319 -70 -335 -2 -11 -19 -92
-39 -180 -19 -88 -37 -171 -40 -185 -2 -14 -9 -43 -14 -65 -6 -22 -13 -56 -16
-76 -3 -20 -8 -42 -10 -50 -3 -8 -7 -25 -10 -39 -2 -14 -13 -65 -25 -115 -11
-49 -23 -101 -25 -115 -7 -34 -30 -139 -66 -295 -17 -71 -33 -141 -36 -155 -3
-14 -10 -43 -15 -64 -17 -64 -18 -168 -3 -198 32 -62 79 -72 334 -70 378 3
1962 2 2158 -1 225 -4 297 7 369 55 66 44 119 140 139 255 3 15 11 60 19 98 8
39 17 86 20 105 3 19 12 67 20 105 8 39 17 84 20 100 3 17 7 44 11 60 7 42
127 633 159 785 25 122 28 138 39 190 3 14 8 36 11 50 3 14 7 34 10 45 2 11
18 83 34 160 16 77 37 172 46 210 17 73 19 77 35 160 5 28 21 100 35 160 14
61 27 119 29 130 15 73 78 367 86 400 10 37 63 289 95 450 13 64 80 382 90
430 6 27 8 38 64 310 28 132 52 247 55 255 3 8 7 29 10 45 2 17 9 53 16 80 6
28 14 61 16 75 2 14 8 43 14 65 9 36 93 431 104 487 2 13 13 61 25 108 11 47
22 97 25 110 2 14 9 45 15 70 5 25 12 56 14 70 3 14 14 63 26 110 24 102 51
216 57 249 6 28 48 203 69 281 8 30 16 66 19 80 2 14 28 117 56 230 28 113 53
212 55 220 10 40 127 471 141 515 8 28 35 122 60 210 25 88 49 171 54 185 4
14 33 112 64 218 31 106 70 229 87 274 64 166 188 265 355 283 66 7 137 15
179 21 22 4 54 8 72 10 17 1 49 5 70 8 21 3 58 8 83 11 25 3 72 10 105 15 33
5 87 12 120 16 33 3 69 8 79 10 10 2 51 6 90 9 39 3 78 8 86 10 27 7 253 18
380 18 110 0 307 -9 380 -18 14 -1 64 -6 110 -10 133 -11 338 -36 395 -49 206
-45 297 -102 351 -221 28 -61 38 -133 38 -275 0 -106 -12 -318 -18 -329 -2 -3
-7 -51 -11 -106 -4 -55 -8 -107 -10 -115 -2 -9 -6 -50 -9 -91 -4 -41 -9 -85
-11 -99 -2 -14 -7 -52 -10 -85 -3 -33 -8 -71 -10 -85 -2 -14 -7 -45 -10 -70
-8 -59 -26 -162 -40 -230 -3 -14 -8 -41 -11 -60 -3 -19 -8 -44 -11 -55 -8 -23
-9 -28 -16 -75 -4 -19 -13 -68 -21 -107 -9 -40 -18 -85 -21 -100 -10 -57 -15
-82 -46 -228 -17 -83 -35 -172 -39 -200 -5 -27 -23 -115 -39 -195 -16 -80 -32
-158 -35 -175 -10 -50 -14 -73 -51 -255 -20 -96 -38 -191 -41 -210 -3 -19 -8
-44 -11 -55 -8 -23 -8 -26 -17 -75 -3 -19 -8 -46 -11 -60 -2 -14 -12 -59 -20
-100 -8 -41 -17 -86 -20 -100 -3 -14 -10 -50 -16 -80 -6 -30 -12 -59 -13 -65
-2 -5 -8 -35 -14 -65 -6 -30 -14 -66 -16 -80 -3 -14 -14 -70 -25 -125 -11 -55
-22 -111 -24 -125 -3 -14 -14 -70 -26 -125 -11 -55 -22 -111 -25 -125 -2 -14
-9 -47 -15 -75 -6 -27 -13 -61 -15 -75 -3 -14 -26 -128 -51 -255 -26 -126 -49
-241 -51 -255 -4 -21 -25 -122 -29 -140 -1 -3 -5 -25 -9 -50 -14 -75 -15 -81
-20 -98 -3 -9 -8 -33 -11 -52 -3 -19 -10 -53 -15 -75 -5 -22 -11 -53 -14 -70
-7 -35 -10 -52 -31 -155 -21 -103 -24 -120 -31 -155 -3 -16 -9 -48 -14 -70 -5
-22 -11 -53 -14 -70 -3 -16 -17 -86 -31 -155 -14 -69 -28 -138 -31 -155 -2
-16 -7 -37 -9 -45 -2 -8 -7 -28 -10 -45 -2 -16 -7 -39 -9 -50 -9 -40 -135
-671 -140 -695 -2 -14 -7 -36 -10 -50 -3 -14 -8 -36 -10 -50 -2 -14 -25 -126
-50 -250 -25 -124 -48 -238 -51 -255 -2 -16 -12 -61 -20 -100 -32 -147 -105
-528 -102 -531 1 -2 629 -4 1394 -5 1536 -2 1448 -5 1520 61 48 44 88 139 107
255 2 17 13 73 24 125 11 52 23 112 26 132 3 21 10 57 15 80 6 24 12 54 15 68
5 25 11 55 71 350 19 91 36 176 39 190 2 14 14 70 25 125 12 55 24 111 26 125
9 48 14 72 19 88 3 9 7 28 10 42 4 21 19 94 41 200 2 14 7 36 10 50 3 14 7 36
10 50 3 14 14 66 24 115 19 84 35 164 47 230 3 16 7 32 9 35 2 4 7 22 10 41 3
19 8 41 10 49 2 8 7 29 10 45 6 34 12 69 20 105 5 25 7 33 25 120 5 25 21 98
35 163 13 65 27 128 29 140 2 12 12 58 21 102 9 44 19 89 21 100 2 11 17 81
33 155 16 74 32 146 35 160 23 116 59 286 71 335 8 33 17 76 20 95 3 19 8 42
10 50 2 8 6 26 9 40 3 14 8 36 11 50 3 14 12 57 20 95 12 62 51 245 60 285 6
26 73 342 85 400 6 30 22 107 35 170 14 63 27 126 29 140 6 30 10 52 30 145 9
39 18 81 20 95 2 14 29 149 60 300 30 151 73 370 94 485 56 292 55 289 57 295
3 14 15 79 20 110 3 19 8 46 10 60 3 14 7 36 10 50 8 41 63 362 69 400 3 19
10 58 15 85 5 28 12 70 16 95 3 25 8 52 10 60 3 8 7 35 10 60 3 25 7 52 10 60
2 8 6 35 9 60 3 25 8 54 10 65 3 17 20 128 31 205 2 14 6 45 10 70 4 25 9 59
11 75 2 17 6 41 9 55 2 14 7 44 10 68 7 58 15 122 20 152 4 32 17 128 21 157
1 13 5 40 8 60 3 21 8 63 11 93 4 30 8 62 10 70 2 8 7 51 10 94 3 44 7 82 9
85 2 3 7 40 10 81 4 41 9 89 11 105 2 17 7 61 10 99 4 38 8 79 10 90 2 12 6
59 10 106 3 47 8 99 10 115 2 17 7 64 10 105 3 41 7 102 10 135 12 137 15 176
22 295 15 253 2 372 -54 488 -35 72 -125 153 -226 201 -69 34 -258 101 -324
116 -10 2 -65 18 -123 35 -133 39 -411 111 -560 145 -63 15 -122 28 -130 30
-20 5 -406 82 -445 89 -71 13 -333 56 -365 60 -19 3 -69 9 -110 15 -183 27
-256 36 -380 47 -41 3 -77 7 -80 9 -3 2 -48 6 -100 10 -52 4 -111 8 -130 10
-19 2 -80 6 -135 10 -55 4 -125 8 -155 10 -188 13 -963 27 -973 18z"/>
<path d="M14988 7155 c-2 -1 -39 -5 -83 -9 -44 -4 -91 -9 -105 -12 -336 -69
-541 -220 -668 -494 -28 -61 -75 -202 -87 -262 -13 -67 -15 -81 -25 -138 -12
-73 -13 -77 -65 -360 -8 -47 -18 -101 -21 -120 -3 -19 -9 -51 -14 -70 -5 -19
-11 -53 -15 -75 -6 -42 -12 -74 -20 -115 -3 -14 -10 -52 -16 -85 -5 -33 -12
-71 -15 -85 -2 -14 -9 -54 -14 -90 -6 -36 -13 -76 -15 -90 -16 -95 -27 -170
-31 -200 -3 -19 -7 -46 -9 -60 -3 -14 -8 -68 -11 -121 -10 -159 22 -231 126
-284 46 -23 148 -49 235 -59 68 -9 136 -18 160 -22 11 -2 45 -6 75 -9 30 -3
69 -7 85 -10 17 -2 66 -7 110 -10 44 -4 96 -9 115 -11 253 -25 950 -24 1220 1
19 2 73 6 120 10 47 3 96 8 110 10 14 2 52 6 85 10 78 8 131 14 180 21 22 3
51 7 65 9 31 4 110 16 130 20 157 29 293 122 353 241 20 39 85 236 113 344 2
8 20 71 40 140 32 114 64 247 78 325 6 29 10 51 21 105 2 14 7 39 10 55 13 78
16 93 25 135 5 25 12 56 14 70 2 14 27 138 54 275 28 138 55 277 61 310 6 33
13 74 16 90 13 80 20 159 19 251 -1 114 -19 167 -77 224 -54 52 -166 90 -312
105 -33 3 -78 8 -100 10 -39 4 -236 11 -575 21 -188 5 -1337 13 -1342 9z"/>
</g>
</svg>
