<?xml version="1.0" standalone="no"?>
<!DOCTYPE svg PUBLIC "-//W3C//DTD SVG 20010904//EN"
 "http://www.w3.org/TR/2001/REC-SVG-20010904/DTD/svg10.dtd">
<svg version="1.0" xmlns="http://www.w3.org/2000/svg"
 width="1526.000000pt" height="1526.000000pt" viewBox="0 0 1526.000000 1526.000000"
 preserveAspectRatio="xMidYMid meet">
<metadata>
Created by potrace 1.11, written by Peter Selinger 2001-2013
</metadata>
<g transform="translate(0.000000,1526.000000) scale(0.100000,-0.100000)"
fill="#000000" stroke="none">
<path d="M10076 9131 c-2 -3 -4 -675 -4 -1493 l0 -1488 224 0 c300 0 317 7
344 147 l13 63 72 -68 c130 -122 259 -172 440 -172 133 0 232 20 343 71 270
122 459 406 523 784 21 121 17 444 -5 550 -48 224 -121 384 -235 508 -43 47
-132 112 -199 146 -180 91 -427 97 -615 15 -68 -30 -206 -118 -249 -158 -15
-14 -29 -26 -31 -26 -2 0 -5 249 -5 553 0 303 -1 557 -1 563 -1 11 -608 17
-615 5z m1092 -1362 c120 -39 200 -160 229 -348 9 -60 9 -365 0 -416 -40 -217
-105 -332 -219 -391 -135 -69 -334 -39 -449 68 l-36 33 0 438 0 437 59 59 c65
64 136 108 206 125 55 14 159 12 210 -5z"/>
<path d="M1105 8248 c-186 -15 -346 -85 -490 -213 l-40 -35 -21 67 c-44 147
-53 151 -334 153 l-217 1 1 -1033 1 -1033 309 0 309 0 0 734 0 735 31 26 c179
150 400 179 519 66 35 -33 74 -117 81 -176 3 -25 5 -348 5 -717 l1 -673 311 0
310 0 -4 743 c-3 723 -4 744 -25 824 -40 152 -102 265 -196 356 -133 129 -336
193 -551 175z"/>
<path d="M5508 8256 c-1 -2 -52 -6 -113 -9 -267 -13 -492 -106 -660 -273 -200
-199 -298 -474 -290 -814 5 -191 13 -242 59 -383 99 -303 320 -527 609 -617
31 -10 57 -16 57 -14 0 2 11 -1 25 -6 23 -9 145 -23 200 -23 133 -1 369 40
465 81 14 5 43 18 65 27 69 29 197 119 263 184 55 55 61 64 50 80 -58 81 -189
232 -215 246 -56 31 -119 17 -200 -42 -124 -92 -204 -121 -323 -117 -103 3
-187 36 -255 101 -63 59 -92 108 -123 204 -21 63 -24 78 -37 169 -9 59 -9 214
-2 265 4 22 9 60 13 85 8 60 40 155 70 207 70 119 203 191 344 187 123 -3 170
-18 305 -94 68 -38 88 -45 133 -44 41 1 58 6 78 25 37 34 206 258 202 268 -5
13 -103 96 -150 128 -105 72 -248 134 -344 149 -22 3 -41 7 -45 9 -3 2 -39 7
-80 10 -40 4 -79 8 -86 10 -6 2 -13 2 -15 1z"/>
<path d="M7209 8256 c-2 -2 -29 -6 -59 -9 -238 -26 -507 -140 -677 -287 l-31
-28 59 -104 c97 -167 137 -198 257 -195 60 2 80 9 196 66 135 67 221 90 321
85 110 -4 198 -51 236 -125 30 -59 38 -100 43 -210 2 -46 -1 -82 -7 -86 -5 -3
-37 -7 -71 -9 -185 -10 -283 -20 -381 -40 -38 -9 -81 -17 -95 -20 -14 -3 -68
-19 -120 -36 -209 -68 -363 -167 -446 -288 -29 -43 -59 -106 -53 -112 1 -2 -3
-12 -9 -24 -18 -33 -23 -73 -22 -165 2 -305 194 -510 505 -544 266 -28 464 27
677 188 49 38 91 67 92 65 1 -2 13 -28 25 -58 38 -94 55 -121 91 -143 32 -20
50 -22 228 -25 l193 -4 -3 729 c-4 716 -4 729 -26 807 -80 288 -280 484 -561
552 -57 14 -351 30 -362 20z m342 -1273 c1 -5 2 -68 3 -141 l1 -134 -45 -42
c-95 -89 -185 -126 -320 -132 -82 -4 -102 -2 -150 18 -46 19 -59 30 -77 68
-48 94 -16 209 73 263 50 30 143 64 201 73 21 3 40 7 43 9 3 2 37 6 75 10 39
4 71 8 72 9 7 6 123 5 124 -1z"/>
<path d="M9505 8241 c-33 -9 -82 -30 -108 -46 -64 -37 -167 -141 -222 -223
-25 -37 -45 -60 -46 -52 -1 17 0 15 -23 123 -36 174 -42 177 -341 177 l-214 0
0 -1035 1 -1035 309 0 309 0 1 28 c0 15 0 297 1 626 0 660 -3 619 65 716 75
108 153 152 267 153 39 0 114 -2 167 -6 88 -6 99 -5 123 14 26 21 32 40 41
149 3 36 7 83 10 105 3 36 16 190 19 240 4 66 -218 107 -359 66z"/>
<path d="M13547 8254 c-1 -1 -31 -3 -67 -5 -171 -6 -336 -74 -485 -197 l-59
-50 -23 74 c-26 82 -64 128 -114 138 -17 3 -122 6 -233 6 l-201 0 0 -1035 0
-1035 310 0 310 0 0 738 0 738 46 37 c181 143 400 161 511 43 32 -34 62 -99
72 -156 3 -14 5 -334 5 -712 l1 -688 310 0 310 0 0 713 c-1 744 -3 774 -46
917 -80 262 -290 436 -567 467 -42 5 -78 8 -80 7z"/>
<path d="M2257 8213 c-7 -14 0 -1397 7 -1453 17 -128 59 -249 119 -343 48 -75
81 -111 150 -164 181 -140 440 -173 697 -91 36 12 81 30 100 41 46 25 102 59
115 69 30 24 63 52 88 74 19 17 29 21 32 12 2 -7 11 -39 20 -70 9 -31 26 -69
37 -84 39 -48 69 -54 298 -54 l210 0 1 38 c1 43 0 1989 0 2015 -1 16 -23 17
-310 17 l-309 0 0 -734 c0 -404 -3 -739 -6 -745 -12 -19 -148 -104 -196 -122
-65 -24 -93 -30 -166 -30 -139 0 -237 86 -260 228 -4 21 -7 345 -7 721 l0 682
-308 0 c-169 0 -310 -3 -312 -7z"/>
<path d="M14812 6795 c-90 -25 -144 -62 -195 -134 -44 -61 -62 -121 -61 -206
1 -132 76 -245 202 -303 45 -20 72 -25 136 -26 45 0 100 5 123 12 93 27 196
126 223 215 36 117 9 250 -66 333 -92 100 -237 144 -362 109z"/>
</g>
</svg>
