<?xml version="1.0" encoding="utf-8"?>
<!-- Generator: Adobe Illustrator 18.0.0, SVG Export Plug-In . SVG Version: 6.00 Build 0)  -->
<!DOCTYPE svg PUBLIC "-//W3C//DTD SVG 1.1//EN" "http://www.w3.org/Graphics/SVG/1.1/DTD/svg11.dtd">
<svg version="1.1" id="Layer_1" xmlns="http://www.w3.org/2000/svg" xmlns:xlink="http://www.w3.org/1999/xlink" x="0px" y="0px"
	 viewBox="0 0 400 800" enable-background="new 0 0 400 800" xml:space="preserve">
<rect x="510" y="-0.1" fill="none" stroke="#70706E" stroke-miterlimit="10" width="400" height="200"/>
<rect x="510" y="199.9" fill="none" stroke="#70706E" stroke-miterlimit="10" width="400" height="200"/>
<rect x="510" y="400.4" fill="none" stroke="#70706E" stroke-miterlimit="10" width="400" height="200"/>
<rect x="510" y="599.4" fill="none" stroke="#70706E" stroke-miterlimit="10" width="400" height="200"/>
<g>
	<path fill="#FFFFFF" d="M221.6,83.2c2.3-0.3,4.4-0.4,6.7,0c0.8,0.2,1.1,0.6,0.9,1.3c-0.3,1.8-0.5,3.8-0.8,5.5
		c-0.5,2.4-0.9,4.7-1.4,7.1l4.6,11.7c0.3,0,0.5,0,0.8,0c1,0,1.3-0.4,1.4-1.3c0.4-2.5,1-4.9,1.5-7.3c1.4-7.1,3.2-14.3,3.7-21.7
		c0.1-1.2-0.4-1.6-1.4-2c-6.4-2-12.7-2.1-19-0.8l2.9,7.3C221.4,83.2,221.5,83.2,221.6,83.2z"/>
	<path fill="#FFFFFF" d="M18.1,108.9c0,0,5.3,0,7.9,0c0.8,0,1.2-0.1,1.3-1c0.4-2.3,0.8-4.4,1.3-6.7c0.7-3.2,1.3-6.4,2.1-9.5
		l-5.2-13.2c-2.2,5.7-3.5,11.8-4.7,17.8C19.9,100.1,18.1,108.9,18.1,108.9z"/>
	<g>
		<g>
			<path fill="#FFFFFF" d="M224.5,108.9c0.8-3.9,1.6-7.8,2.4-11.7l-5.5-13.9c-0.8,0.2-1,0.9-1.3,1.7c-1.6,5.3-2.6,10.8-3.8,16.2
				c-0.5,2.3-0.9,4.4-1.3,6.7c-0.2,0.8-0.6,1-1.3,1c-2.6,0-7.9,0-7.9,0s1.8-8.6,2.7-12.7c1.2-6.1,2.6-12,4.8-17.9
				c0.2-0.6,0.4-1,1.1-1.2c1.3-0.4,2.8-0.8,4.1-1L208.8,52c-0.9-2.4-3.4-4-6-4h-180c-4.5,0-7.6,4.5-6,8.7l8.6,22
				c0-0.1,0-0.1,0.1-0.2c0.2-0.6,0.4-1,1.1-1.2c7.7-2.4,15.4-2.7,23.2-0.4c1,0.3,1.5,0.7,1.4,2c-0.4,7.3-2.2,14.5-3.7,21.7
				c-0.5,2.4-1.1,4.9-1.5,7.3c-0.2,0.9-0.5,1.3-1.4,1.3c-2.4-0.1-4.7,0-7.1,0l4.7,11.8c0.9,2.4,3.4,4,6,4h180.1c4.5,0,7.6-4.5,6-8.7
				l-2.8-7.1C229.2,108.8,227,108.9,224.5,108.9z M86.3,77.2c-2.3,9.8-3.8,19.6-7.2,29c-0.3,0.8-0.8,1.2-1.5,1.4
				c-2.5,0.7-5,1.3-7.7,1.4c-0.3,0-6.4,0.3-12.7-0.7c-0.9-0.2-1.1-0.3-1.7-0.4c-1.5-0.3-2.3-0.8-2.2-2.7c0.4-6.2,1.6-12.1,3-18.1
				c0.7-3.4,1.4-6.8,2.3-10.2c0.1-0.6,0.2-1,1-0.9c2.7,0.1,5.4,0,8.2,0c-0.9,4.5-2,8.8-2.8,13.2c-0.7,3.4-1.2,6.8-1.8,10.1
				c-0.3,1.3,0.1,2,1.5,2.2c2.3,0.2,4.3,0.2,6.5-0.2c1-0.2,0.9-1.1,1.1-2c1.8-5.9,2.9-12,4.1-18.1c0.3-1.3,0.6-2.8,0.8-4.1
				c0.1-0.8,0.4-1.1,1.4-1c2.2,0.3,4.1,0.3,6.3,0C86.4,76,86.6,76.4,86.3,77.2z M97.4,101.5c4.3,0.6,8.5,0.1,12.7-0.6
				c1.2-0.2,2.5-0.5,3.9-0.8c-0.8,2.4-1.4,4.6-2.3,7c-0.2,0.7-0.8,0.8-1.3,0.8c-2.5,0.7-5,1.3-7.7,1.4c-0.3,0-6.5,0.3-11.8-0.5
				c-0.8-0.1-1.6-0.3-2.5-0.5c-1.4-0.5-2.3-0.9-2.2-2.8c0.6-6.8,1.8-13.3,3.6-19.7c0.7-2.5,1.5-4.9,2.4-7.4c0.2-0.8,0.7-1.1,1.4-1.3
				c7.6-2.4,15.2-2.6,22.8-0.2c0.9,0.3,1.4,0.8,1.2,2c-0.4,2-0.5,3.9-0.7,5.9c-5.4-1.2-10.7-2.2-16.1-1.3c-0.9,0.1-1.4,0.5-1.7,1.4
				c-1.5,5-2.5,10.2-3.3,15.3C96.2,100.9,96.4,101.3,97.4,101.5z M142.2,107.7c-2.5,0.8-5,1.3-7.6,1.5c-8.9,0.6-11.7-0.4-13.3-0.8
				c-0.4-0.1-0.8-0.2-1.2-0.3c-1.7-0.3-2.5-1.1-2.4-3.1c0.3-5.2,1.3-10.2,3.6-14.9c0.2-0.5,0.6-0.8,1.1-1c5.2-1.6,10.4-2.4,15.8-1.7
				c0.9,0.1,1.3,0.2,1.5-1c0.3-3.4,0.4-3.5-3.3-3.6c-4.5-0.1-8.9,0.4-13.3,1.5c-0.2,0-0.3,0-0.8,0.1c0.8-2.4,1.6-4.5,2.4-6.8
				c0.2-0.5,0.5-0.6,0.9-0.8c7.4-2.4,15-2.6,22.5-0.3c1,0.3,1.5,0.8,1.4,2c-0.6,9.6-2.7,19-6.1,28
				C143.1,107.2,142.7,107.5,142.2,107.7z M171.8,83.1c-2.1-0.4-3.9-0.2-6,0.1c-1.1,0.1-1.7,0.6-2.2,1.7c-1.8,6.5-3.1,13.1-4.4,19.7
				c-0.8,4.2-0.8,4.2-5.2,4.2c-1.5,0-3.1,0-4.7,0c2.5-10.3,3.8-20.6,7.5-30.5c0.4-0.8,0.8-1.3,1.6-1.6c5.9-1.7,12.4-2.4,17.6-1.2
				c-0.8,2.4-1.8,4.6-2.9,6.9C172.8,83,172.4,83.2,171.8,83.1z M199.7,106.6c-0.3,0.8-0.8,1-1.4,1.1c-2.6,0.7-5.2,1.3-7.9,1.4
				c-0.3,0-7.9,0.5-14.5-1c-1.4-0.3-2.2-0.8-2.1-2.7c0.6-7.8,2.5-15.3,4-22.9c1.2-6.4,2.7-12.7,4-19.1c0.2-0.9,0.7-1.5,1.6-1.8
				c2-0.5,3.9-0.9,5.9-1c0.8,0,1.6-0.7,2.2,0.4c-0.9,4.7-2.1,9.5-3.1,14.5c3.2-0.5,6.3-0.5,9.3-0.1c2.3,0.3,4.4,0.8,6.7,1.4
				c0.8,0.3,1.1,0.7,1.1,1.7C205,88,202.8,97.5,199.7,106.6z"/>
			<path fill="#FFFFFF" d="M194.7,83.2c-2.4-0.5-4.6-0.2-7,0c-0.8,0.1-0.9,0.5-1.1,1.1c-0.9,4.3-2.1,8.7-2.6,13.2
				c-0.6,4.1-0.5,4.1,4.2,4.1c0.8,0,1.8-0.1,3-0.3c0.8-0.1,1.1-0.5,1.3-1.2c1.6-5.1,2.7-10.3,3.4-15.6
				C196,83.5,195.7,83.3,194.7,83.2z"/>
			<path fill="#FFFFFF" d="M41.7,84.5c0.1-0.8-0.1-1.2-0.9-1.3c-2.3-0.4-4.4-0.3-6.7,0c-1,0.2-1.3,0.9-1.5,1.7
				c-0.7,2.3-1.2,4.4-1.7,6.7l6.5,16.2c1.2-6,2.5-11.8,3.7-17.8C41.3,88.2,41.5,86.5,41.7,84.5z"/>
			<path fill="#FFFFFF" d="M129.6,95.5c-0.6,0.1-1,0.2-1.3,0.8c-0.6,1.2-0.8,2.6-0.9,3.9c0,0.7,0.2,0.9,0.9,1.1
				c1.7,0.4,3.5,0.3,5.3,0.3c1.8-0.1,2.7,0,3.5-2.7c0.8-2.8,0.6-2.2,0.9-3.3C134.9,95.1,132.2,94.9,129.6,95.5z"/>
		</g>
		<g>
			<path fill="#FFFFFF" d="M242.5,106.8l1.7-2.1c0.8,1.1,2.6,2.1,4.3,2.1c1.4,0,2-0.8,2-1.4c0-1.8-6.3-1.4-6.3-5.3
				c0-2.2,2-4.2,5.1-4.2c2.1,0,3.9,0.8,5.2,2.2l-1.7,2.1c-0.9-1.1-2.5-1.6-3.9-1.6c-0.9,0-1.7,0.6-1.7,1.2c0,1.7,6.4,1.4,6.4,5.2
				c0,2.4-2,4.4-5.1,4.4C245.9,109.2,243.5,108.2,242.5,106.8z"/>
			<path fill="#FFFFFF" d="M254.4,108.9l2.9-12.9h9.1l-0.6,2.4h-6.4l-0.6,2.7h6.3l-0.5,2.4h-6.3l-0.7,3h6.4l-0.5,2.4H254.4
				L254.4,108.9L254.4,108.9z"/>
			<path fill="#FFFFFF" d="M274.7,108.9l-0.3-2.3h-5.5l-1.2,2.3h-3.3l7.8-12.9h3.5l2.2,12.9H274.7z M273.4,98.8l-3.3,5.5h4
				L273.4,98.8z"/>
			<path fill="#FFFFFF" d="M290.2,108.9l2.1-9.3l-5.6,9.3h-1.1l-1.6-9.3l-2.1,9.3H279l2.9-12.9h3.8l1.3,8.1l4.9-8.1h3.9l-2.9,12.9
				H290.2z"/>
			<path fill="#FFFFFF" d="M295.4,108.9l2.9-12.9h2.8l-2.4,10.5h5.5l-0.5,2.4H295.4L295.4,108.9z"/>
			<path fill="#FFFFFF" d="M305.6,108.9l2.9-12.9h9.1l-0.6,2.4h-6.4L310,101h6.3l-0.5,2.4h-6.3l-0.7,3h6.4l-0.5,2.4L305.6,108.9
				L305.6,108.9L305.6,108.9z"/>
			<path fill="#FFFFFF" d="M316.6,106.8l1.7-2.1c0.8,1.1,2.6,2.1,4.3,2.1c1.4,0,2-0.8,2-1.4c0-1.8-6.3-1.4-6.3-5.3
				c0-2.2,2-4.2,5.1-4.2c2.1,0,3.9,0.8,5.2,2.2l-1.7,2.1c-0.9-1.1-2.5-1.6-3.9-1.6c-0.9,0-1.7,0.6-1.7,1.2c0,1.7,6.4,1.4,6.4,5.2
				c0,2.4-2,4.4-5.1,4.4C320,109.2,317.7,108.2,316.6,106.8z"/>
			<path fill="#FFFFFF" d="M328.2,106.8l1.7-2.1c0.8,1.1,2.6,2.1,4.3,2.1c1.4,0,2-0.8,2-1.4c0-1.8-6.3-1.4-6.3-5.3
				c0-2.2,2-4.2,5.1-4.2c2.1,0,3.9,0.8,5.2,2.2l-1.7,2.1c-0.9-1.1-2.5-1.6-3.9-1.6c-0.9,0-1.7,0.6-1.7,1.2c0,1.7,6.4,1.4,6.4,5.2
				c0,2.4-2,4.4-5.1,4.4C331.6,109.2,329.4,108.2,328.2,106.8z"/>
			<path fill="#FFFFFF" d="M345,108.9l2.9-12.9h2.8l-2.4,10.5h5.5l-0.5,2.4H345L345,108.9z"/>
			<path fill="#FFFFFF" d="M355.1,108.9L358,96h2.8l-2.9,12.9H355.1z"/>
			<path fill="#FFFFFF" d="M360.4,108.9l2.9-12.9h9.1l-0.6,2.4h-6.4l-0.6,2.7h6.3l-0.5,2.4h-6.2l-1.1,5.4H360.4L360.4,108.9
				L360.4,108.9z"/>
			<path fill="#FFFFFF" d="M371.5,108.9l2.9-12.9h9.1l-0.6,2.4h-6.4l-0.6,2.7h6.3l-0.5,2.4h-6.3l-0.7,3h6.4l-0.5,2.4H371.5
				L371.5,108.9L371.5,108.9z"/>
		</g>
	</g>
</g>
<g>
	<path fill="#FFFFFF" d="M261.5,468.5c-0.6-0.7-1.3,0-1.9-0.4c0-0.1,0-0.2,0-0.2c0.6,0,1.4,0,2.1,0
		C261.7,468.1,261.6,468.4,261.5,468.5z"/>
	<path fill="#FFFFFF" d="M128.8,492.4c0.1-0.5,0.2-0.9,0.2-1.6c0.3-2.9,0.3-2.8-2.6-3.1c-1.3-0.1-2.8,0.2-4,0.3
		c-0.9,0.1-0.9,0.9-1.2,1.6c-0.6,1.9-1,3.8-1.6,5.8l5.7,14.3C126.4,504,127.7,498.2,128.8,492.4z"/>
	<g>
		<path fill="#FFFFFF" d="M290.7,510.8c0.6-3.4,1.4-6.8,2.1-10.3l-4.9-12.3c-0.7,0.2-0.9,0.8-1.1,1.6c-1.4,4.7-2.3,9.5-3.3,14.3
			c-0.5,2-0.8,3.9-1.2,5.9c-0.2,0.8-0.6,0.9-1.2,0.9c-2.3,0-6.9,0-6.9,0s1.7-7.8,2.4-11.3c1.1-5.4,2.4-10.6,4.3-15.7
			c0.2-0.6,0.3-0.9,0.9-1.1c1.2-0.4,2.5-0.6,3.7-0.9l-8.5-21.4c-0.8-2.1-3-3.6-5.3-3.6h-159c-4,0-6.7,4-5.3,7.8l7.8,19.3
			c0-0.1,0.1-0.1,0.1-0.2c0.2-0.6,0.3-0.9,0.9-1.1c6.8-2.1,13.6-2.4,20.6-0.3c0.9,0.3,1.3,0.6,1.3,1.8c-0.4,6.5-1.9,12.8-3.2,19.1
			c-0.5,2.1-0.9,4.3-1.3,6.5c-0.2,0.8-0.4,1.2-1.3,1.1c-2.1-0.1-4.2,0-6.3,0l4.1,10.4c0.8,2.1,3,3.6,5.3,3.6h159c4,0,6.7-4,5.3-7.8
			l-2.5-6.2C294.8,510.8,292.8,510.8,290.7,510.8z M168.7,482.9c-1.9,8.6-3.2,17.3-6.3,25.5c-0.3,0.7-0.6,1.1-1.3,1.3
			c-2.2,0.6-4.4,1.2-6.8,1.3c-0.2,0-5.6,0.2-11.2-0.6c-0.9-0.2-0.9-0.2-1.6-0.3c-1.3-0.3-2-0.7-1.9-2.4c0.4-5.5,1.4-10.7,2.6-16
			c0.6-3,1.3-5.9,1.9-8.9c0.1-0.6,0.2-0.9,0.9-0.9c2.4,0.1,4.7,0,7.2,0c-0.8,4-1.7,7.8-2.5,11.7c-0.6,3-1,5.9-1.7,8.9
			c-0.2,1.1,0.1,1.8,1.3,1.9c1.9,0.2,3.8,0.2,5.7-0.2c0.9-0.2,0.8-1,0.9-1.7c1.7-5.3,2.5-10.5,3.6-15.9c0.3-1.2,0.6-2.5,0.7-3.6
			c0.2-0.6,0.3-1,1.3-0.9c1.9,0.2,3.6,0.2,5.5,0C168.7,481.9,168.8,482.2,168.7,482.9z M178.4,504.3c3.8,0.6,7.5,0.1,11.3-0.6
			c1.1-0.2,2.2-0.5,3.5-0.7c-0.6,2.1-1.3,4.1-1.9,6.1c-0.2,0.6-0.7,0.6-1.2,0.7c-2.2,0.6-4.4,1.2-6.8,1.3c-0.2,0-5.7,0.3-10.4-0.5
			c-0.7-0.2-1.4-0.2-2.2-0.5c-1.3-0.4-2-0.8-1.9-2.5c0.6-5.9,1.7-11.8,3.2-17.5c0.6-2.2,1.3-4.4,2.1-6.6c0.2-0.6,0.6-0.9,1.3-1.2
			c6.7-2.1,13.4-2.3,20.2-0.2c0.8,0.3,1.3,0.6,1.1,1.7c-0.3,1.8-0.5,3.5-0.6,5.2c-4.7-1-9.4-1.9-14.3-1.1c-0.8,0.2-1.2,0.4-1.6,1.3
			c-1.3,4.4-2.2,8.9-2.9,13.4C177.4,503.7,177.5,504.1,178.4,504.3z M217.8,509.8c-2.2,0.6-4.4,1.2-6.8,1.3
			c-8,0.6-10.3-0.4-11.8-0.6c-0.4-0.1-0.7-0.2-1.1-0.2c-1.7-0.3-2.2-1-2.1-2.8c0.2-4.5,1.2-8.9,3.1-13.1c0.2-0.5,0.5-0.7,1-0.9
			c4.5-1.4,9.3-2.1,14-1.6c0.8,0.1,1.2,0.2,1.3-0.9c0.3-3.1,0.4-3.1-2.9-3.1c-4-0.1-8,0.3-11.9,1.3c-0.2,0-0.3,0-0.6,0.1
			c0.7-2.1,1.3-4,2.1-6c0.2-0.4,0.5-0.6,0.9-0.6c6.6-2.1,13.1-2.3,19.8-0.3c0.9,0.3,1.3,0.6,1.3,1.8c-0.6,8.5-2.5,16.8-5.4,24.8
			C218.9,509.5,218.4,509.7,217.8,509.8z M244.1,488.1c-1.8-0.4-3.5-0.2-5.3,0.1c-1,0.1-1.6,0.6-1.9,1.6c-1.7,5.7-2.7,11.6-3.9,17.5
			c-0.8,3.7-0.7,3.8-4.7,3.8c-1.3,0-2.8,0-4.2,0c2.2-9.1,3.3-18.2,6.6-26.9c0.3-0.7,0.6-1.2,1.4-1.4c5.2-1.7,11-2.1,15.5-1.1
			c-0.6,2.1-1.7,4.1-2.6,6C245,488.1,244.7,488.2,244.1,488.1z M268.7,508.9c-0.2,0.6-0.6,0.9-1.3,1c-2.3,0.6-4.5,1.2-6.9,1.3
			c-0.3,0-7,0.4-12.7-0.9c-1.3-0.3-1.9-0.6-1.8-2.4c0.5-6.8,2.2-13.5,3.6-20.3c1.1-5.6,2.4-11.3,3.6-16.8c0.2-0.8,0.6-1.3,1.4-1.7
			c1.7-0.4,3.4-0.8,5.2-0.9c0.6,0.1,1.3-0.6,1.9,0.4c-0.9,4.2-1.8,8.4-2.7,12.7c2.8-0.5,5.6-0.5,8.2-0.1c2,0.2,4,0.6,5.9,1.2
			c0.8,0.2,1,0.6,0.9,1.6C273.5,492.4,271.6,500.8,268.7,508.9z"/>
		<path fill="#FFFFFF" d="M264.4,488.1c-2.1-0.5-4.1-0.2-6.2,0c-0.6,0.1-0.8,0.5-0.9,1c-0.8,3.9-1.8,7.8-2.3,11.7
			c-0.6,3.6-0.5,3.6,3.7,3.6c0.6,0,1.7-0.1,2.7-0.2c0.7-0.1,0.9-0.5,1.2-1c1.4-4.4,2.5-9.1,3-13.8
			C265.5,488.5,265.1,488.3,264.4,488.1z"/>
		<path fill="#FFFFFF" d="M129.2,489.3c0.1-0.6-0.1-1-0.9-1.2c-2-0.4-3.9-0.3-5.9,0c-0.9,0.2-1.1,0.8-1.3,1.6
			c-0.6,1.9-1,3.9-1.6,5.9l5.6,14.3c1-5.3,2.2-10.4,3.2-15.6C128.9,492.7,129,491.1,129.2,489.3z"/>
		<path fill="#FFFFFF" d="M206.8,499.1c-0.6,0.1-0.9,0.2-1.2,0.6c-0.6,1.1-0.7,2.3-0.8,3.5c-0.1,0.6,0.2,0.8,0.8,0.9
			c1.6,0.3,3.1,0.3,4.7,0.2c1.7-0.1,2.4,0,3.1-2.5c0.6-2.5,0.6-1.9,0.8-2.9C211.5,498.7,209.1,498.5,206.8,499.1z"/>
	</g>
	<path fill="#FFFFFF" d="M288.1,488.1c2-0.3,3.9-0.4,5.9,0c0.7,0.2,0.9,0.6,0.9,1.2c-0.2,1.7-0.5,3.2-0.7,4.9
		c-0.5,2.1-0.8,4.2-1.3,6.2l4.1,10.3c0.2,0,0.5,0,0.6,0c0.9,0,1.1-0.3,1.3-1.1c0.4-2.1,0.9-4.4,1.3-6.5c1.3-6.3,2.8-12.7,3.2-19.1
		c0.1-1-0.3-1.4-1.3-1.8c-5.6-1.7-11.2-1.9-16.8-0.6l2.6,6.5C287.9,488.2,288,488.2,288.1,488.1z"/>
	<path fill="#FFFFFF" d="M125.1,510.8c0.2,0,0.4,0,0.6,0l-0.4-0.9C125.2,510.2,125.1,510.5,125.1,510.8z"/>
	<path fill="#FFFFFF" d="M108.5,510.8c0,0,4.7,0,6.9,0c0.6,0,1-0.2,1.2-0.9c0.3-2,0.7-4,1.2-5.9c0.6-2.8,1.1-5.6,1.9-8.5l-4.7-11.7
		c-1.9,5.1-3.1,10.4-4.2,15.6C110,503.2,108.5,510.8,108.5,510.8z"/>
	<path fill="#FFFFFF" d="M261.5,468.5c-0.6-0.7-1.3,0-1.9-0.4c0-0.1,0-0.2,0-0.2c0.6,0,1.4,0,2.1,0
		C261.7,468.1,261.6,468.4,261.5,468.5z"/>
</g>
<g>
	<path fill="#FFFFFF" d="M175.6,353.8c-0.6-0.8-1.5,0-2.1-0.5c0-0.1,0.1-0.2,0-0.3c0.8,0,1.6,0,2.3,0
		C175.8,353.4,175.7,353.7,175.6,353.8z"/>
	<path fill="#FFFFFF" d="M175.6,353.8c-0.6-0.8-1.5,0-2.1-0.5c0-0.1,0.1-0.2,0-0.3c0.8,0,1.6,0,2.3,0
		C175.8,353.4,175.7,353.7,175.6,353.8z"/>
	<g>
		<path fill="#FFFFFF" d="M273,256.8c-0.6-0.9-1.7,0-2.3-0.5c0-0.1,0.1-0.2,0-0.3c0.8,0,1.8,0,2.6,0
			C273.2,256.4,273.1,256.5,273,256.8z"/>
		<path fill="#FFFFFF" d="M113.2,285.7c0.2-0.6,0.2-1.2,0.2-1.8c0.4-3.5,0.4-3.5-3.1-3.8c-1.7-0.2-3.2,0.2-5,0.4
			c-1.1,0.2-1.2,1.1-1.5,1.8c-0.7,2.3-1.3,4.7-1.8,6.9l6.8,17.3C110.5,299.6,111.9,292.6,113.2,285.7z"/>
		<g>
			<path fill="#FFFFFF" d="M308,307.8c0.8-4.1,1.8-8.3,2.6-12.4l-5.9-14.9c-0.9,0.2-1.1,1-1.5,1.8c-1.8,5.6-2.8,11.5-4.1,17.3
				c-0.5,2.4-1,4.7-1.5,7.1c-0.2,0.9-0.6,1.1-1.5,1.1c-2.9-0.1-8.4,0-8.4,0s2-9.2,2.9-13.6c1.4-6.5,2.9-12.8,5.2-19.1
				c0.2-0.6,0.4-1.1,1.2-1.4c1.6-0.5,2.9-0.8,4.5-1.1L291.4,247c-1-2.6-3.5-4.3-6.4-4.3H93.8c-4.9,0-8.1,4.9-6.4,9.3l9.2,23.3
				c0-0.1,0.1-0.2,0.1-0.2c0.2-0.6,0.4-1.1,1.2-1.4c8.2-2.6,16.4-2.9,24.6-0.4c1.1,0.4,1.7,0.7,1.6,2.1c-0.5,7.8-2.3,15.4-3.8,23
				c-0.5,2.6-1.1,5.3-1.7,7.8c-0.2,1.1-0.5,1.5-1.7,1.5c-2.6-0.1-5,0-7.7,0l5,12.5c1,2.6,3.5,4.3,6.4,4.3h191.6
				c4.9,0,8.1-4.9,6.4-9.3l-2.9-7.6C313.1,307.8,310.6,307.8,308,307.8z M161.2,274.2c-2.3,10.4-4,20.8-7.7,30.8
				c-0.3,0.8-0.8,1.4-1.7,1.7c-2.7,0.7-5.3,1.5-8.2,1.6c-0.3,0-6.7,0.3-13.6-0.7c-1.1-0.2-1.2-0.3-1.8-0.4c-1.7-0.4-2.3-0.9-2.3-2.9
				c0.5-6.5,1.8-12.9,3.1-19.4c0.7-3.6,1.7-7.1,2.3-10.8c0.2-0.6,0.2-1.1,1.1-1.1c2.9,0.1,5.7,0,8.8,0c-1,4.8-2,9.4-2.9,14
				c-0.7,3.5-1.3,7.1-2,10.7c-0.3,1.5,0.2,2.1,1.7,2.3c2.3,0.2,4.6,0.2,6.8-0.2c1.1-0.2,1-1.3,1.2-2c1.9-6.3,3-12.8,4.4-19.2
				c0.3-1.5,0.6-2.9,0.9-4.4c0.2-0.8,0.4-1.2,1.7-1.1c2.3,0.3,4.4,0.3,6.6,0C161.3,272.9,161.5,273.3,161.2,274.2z M173,300
				c4.6,0.6,9,0.1,13.6-0.6c1.4-0.2,2.7-0.6,4.2-0.8c-0.8,2.6-1.7,5-2.3,7.4c-0.2,0.7-0.9,0.8-1.5,0.9c-2.7,0.7-5.3,1.5-8.2,1.6
				c-0.3,0-6.8,0.4-12.5-0.6c-0.8-0.2-1.8-0.3-2.6-0.5c-1.7-0.5-2.4-1-2.3-2.9c0.6-7.1,2-14.1,3.8-20.9c0.7-2.7,1.7-5.3,2.6-7.9
				c0.2-0.8,0.7-1.2,1.7-1.5c8.1-2.5,16.1-2.8,24.2-0.2c1,0.4,1.7,0.8,1.4,2c-0.4,2.1-0.5,4.1-0.7,6.3c-5.7-1.3-11.3-2.3-17.1-1.5
				c-1,0.2-1.6,0.5-1.9,1.7c-1.7,5.3-2.7,10.8-3.5,16.3C171.7,299.3,171.9,299.7,173,300z M220.5,306.6c-2.7,0.8-5.3,1.5-8.2,1.7
				c-9.5,0.6-12.4-0.5-14.2-0.8c-0.5-0.1-0.8-0.2-1.4-0.3c-1.9-0.4-2.6-1.2-2.6-3.2c0.3-5.5,1.5-10.7,3.8-15.8
				c0.2-0.6,0.6-0.9,1.2-1.1c5.5-1.8,11.1-2.5,16.8-1.9c1,0.1,1.5,0.2,1.7-1.1c0.4-3.6,0.5-3.7-3.5-3.8c-4.8-0.1-9.5,0.4-14.2,1.7
				c-0.2,0.1-0.4,0-0.8,0.1c0.8-2.6,1.7-4.9,2.6-7.2c0.2-0.5,0.6-0.6,1.1-0.8c8-2.6,15.9-2.8,23.9-0.4c1.1,0.4,1.7,0.8,1.6,2.1
				c-0.6,10.3-2.9,20.2-6.5,29.8C221.6,306,221.2,306.3,220.5,306.6z M252.1,280.3c-2.1-0.5-4.1-0.2-6.3,0.1
				c-1.2,0.2-1.9,0.6-2.3,1.9c-2,6.8-3.2,14-4.7,20.9c-0.9,4.6-0.9,4.6-5.6,4.6c-1.7,0-3.2,0-5.1,0c2.6-11,4.1-21.9,8-32.4
				c0.4-0.9,0.8-1.5,1.8-1.8c6.2-1.9,13.3-2.5,18.6-1.4c-0.8,2.6-2,5-3.1,7.4C253.2,280.3,252.7,280.4,252.1,280.3z M281.6,305.4
				c-0.3,0.8-0.8,1.1-1.6,1.3c-2.8,0.7-5.5,1.5-8.3,1.6c-0.4,0-8.5,0.5-15.3-1.1c-1.6-0.4-2.3-0.8-2.1-2.9
				c0.6-8.3,2.7-16.3,4.2-24.3c1.4-6.8,2.9-13.6,4.2-20.3c0.2-1.1,0.6-1.7,1.8-2c2-0.5,4.1-1,6.2-1.1c0.8,0.1,1.7-0.6,2.3,0.5
				c-1.1,5.1-2.1,10.1-3.2,15.4c3.4-0.5,6.6-0.5,9.9-0.1c2.4,0.3,4.8,0.8,7.1,1.6c0.9,0.3,1.3,0.8,1.2,1.8
				C287.3,285.7,285,295.6,281.6,305.4z"/>
			<path fill="#FFFFFF" d="M276.5,280.4c-2.5-0.5-5-0.2-7.4,0c-0.8,0.1-1.1,0.5-1.2,1.2c-1,4.7-2.2,9.2-2.8,14
				c-0.6,4.4-0.5,4.4,4.5,4.4c0.8,0,2-0.2,3.2-0.3c0.9-0.2,1.1-0.6,1.5-1.3c1.8-5.4,2.9-11,3.5-16.6
				C277.8,280.9,277.4,280.6,276.5,280.4z"/>
			<path fill="#FFFFFF" d="M113.9,281.9c0.2-0.8-0.1-1.3-1.1-1.6c-2.4-0.5-4.7-0.4-7.1,0c-1.1,0.2-1.4,1-1.7,1.9
				c-0.7,2.3-1.3,4.7-1.9,7.1l6.8,17.3c1.3-6.4,2.6-12.5,3.9-18.8C113.3,285.8,113.5,283.8,113.9,281.9z"/>
			<path fill="#FFFFFF" d="M207.1,293.6c-0.6,0.2-1.1,0.2-1.5,0.8c-0.6,1.3-0.9,2.8-1,4.1c-0.1,0.7,0.2,1,1,1.2
				c1.9,0.5,3.8,0.4,5.6,0.3c1.9-0.1,2.9,0,3.7-2.9s0.6-2.3,1-3.5C212.8,293.2,209.9,293,207.1,293.6z"/>
		</g>
		<path fill="#FFFFFF" d="M305,280.4c2.4-0.4,4.7-0.5,7.1,0c0.9,0.2,1.2,0.6,1.1,1.6c-0.3,2-0.5,4-0.9,5.9c-0.5,2.6-1,5.1-1.6,7.6
			l5,12.4c0.3,0,0.5,0,0.8,0c1.1,0,1.4-0.4,1.7-1.5c0.5-2.6,1.1-5.3,1.7-7.8c1.7-7.7,3.4-15.2,3.8-23c0.1-1.3-0.4-1.8-1.6-2.1
			c-6.8-2-13.6-2.2-20.2-0.8l3.1,7.8C304.8,280.4,304.9,280.4,305,280.4z"/>
		<path fill="#FFFFFF" d="M108.8,307.8c0.2,0,0.5,0,0.6,0l-0.5-1.1C109,307,108.9,307.3,108.8,307.8z"/>
		<path fill="#FFFFFF" d="M88.7,307.8c0,0,5.6,0,8.4,0c0.8,0,1.3-0.2,1.5-1.1c0.5-2.4,0.9-4.7,1.5-7.1c0.7-3.4,1.4-6.8,2.2-10.1
			l-5.6-14c-2.3,6.2-3.7,12.4-5.1,18.8C90.7,298.5,88.7,307.8,88.7,307.8z"/>
		<path fill="#FFFFFF" d="M273,256.8c-0.6-0.9-1.7,0-2.3-0.5c0-0.1,0.1-0.2,0-0.3c0.8,0,1.8,0,2.6,0
			C273.2,256.4,273.1,256.5,273,256.8z"/>
	</g>
	<g enable-background="new    ">
		<path fill="#FFFFFF" d="M140.3,347.7l1.6-1.9c0.8,1.1,2.4,1.9,4.1,1.9c1.3,0,1.8-0.8,1.8-1.4c0-1.7-5.8-1.4-5.8-4.9
			c0-2,1.7-3.9,4.7-3.9c1.9,0,3.7,0.7,4.7,2l-1.6,1.8c-0.9-1.1-2.3-1.5-3.5-1.5c-0.9,0-1.6,0.5-1.6,1.2c0,1.6,5.9,1.4,5.9,4.8
			c0,2.2-1.7,4.1-4.7,4.1C143.3,349.9,141.3,349,140.3,347.7z"/>
		<path fill="#FFFFFF" d="M151.2,349.8l2.6-11.9h8.5l-0.5,2.3h-5.9l-0.5,2.5h5.8l-0.5,2.3h-5.8l-0.6,2.7h5.9l-0.5,2.3h-8.5V349.8z"
			/>
		<path fill="#FFFFFF" d="M170,349.8l-0.3-2h-5.1l-1.2,2h-3l7.2-11.9h3.2l2,11.9H170z M168.7,340.4l-3,5.1h3.8L168.7,340.4z"/>
		<path fill="#FFFFFF" d="M184.2,349.8l1.9-8.6l-5.3,8.6h-1.1l-1.5-8.6l-1.9,8.6h-2.6l2.6-11.9h3.5l1.3,7.4l4.5-7.4h3.7l-2.6,11.9
			H184.2z"/>
		<path fill="#FFFFFF" d="M189,349.8l2.6-11.9h2.6l-2.2,9.7h5l-0.5,2.3H189V349.8z"/>
		<path fill="#FFFFFF" d="M198.3,349.8l2.6-11.9h8.4l-0.5,2.3h-5.9l-0.5,2.5h5.8l-0.5,2.3H202l-0.6,2.7h5.9l-0.5,2.3h-8.5V349.8z"/>
		<path fill="#FFFFFF" d="M208.5,347.7l1.6-1.9c0.8,1.1,2.4,1.9,4.1,1.9c1.3,0,1.8-0.8,1.8-1.4c0-1.7-5.8-1.4-5.8-4.9
			c0-2,1.7-3.9,4.7-3.9c1.9,0,3.7,0.7,4.7,2l-1.6,1.8c-0.9-1.1-2.3-1.5-3.5-1.5c-0.9,0-1.6,0.5-1.6,1.2c0,1.6,5.9,1.4,5.9,4.8
			c0,2.2-1.7,4.1-4.7,4.1C211.5,349.9,209.5,349,208.5,347.7z"/>
		<path fill="#FFFFFF" d="M219.2,347.7l1.6-1.9c0.8,1.1,2.4,1.9,4.1,1.9c1.3,0,1.8-0.8,1.8-1.4c0-1.7-5.8-1.4-5.8-4.9
			c0-2,1.7-3.9,4.7-3.9c1.9,0,3.7,0.7,4.7,2l-1.6,1.8c-0.9-1.1-2.3-1.5-3.5-1.5c-0.9,0-1.6,0.5-1.6,1.2c0,1.6,5.9,1.4,5.9,4.8
			c0,2.2-1.7,4.1-4.7,4.1C222.2,349.9,220.2,349,219.2,347.7z"/>
		<path fill="#FFFFFF" d="M234.6,349.8l2.6-11.9h2.6l-2.2,9.7h5l-0.5,2.3h-7.5V349.8z"/>
		<path fill="#FFFFFF" d="M243.9,349.8l2.6-11.9h2.6l-2.6,11.9H243.9z"/>
		<path fill="#FFFFFF" d="M248.8,349.8l2.6-11.9h8.4l-0.5,2.3h-5.9l-0.5,2.5h5.8l-0.5,2.3h-5.8l-1.1,5h-2.5V349.8z"/>
		<path fill="#FFFFFF" d="M259,349.8l2.6-11.9h8.4l-0.5,2.3h-5.9l-0.5,2.5h5.8l-0.5,2.3h-5.8l-0.6,2.7h5.9l-0.5,2.3H259V349.8z"/>
	</g>
</g>
<g>
	<path fill="#FFFFFF" d="M198.1,727.3c2.4-11.8,4.7-23.6,7.1-35.3c0.2-0.9,0.3-2,0.4-2.9c0.6-5.5,0.6-5.5-5-6
		c-2.6-0.2-5.2,0.4-7.8,0.6c-1.7,0.2-2,1.7-2.4,2.9c-2.8,9-4.4,18.3-6.5,27.5c-0.8,3.8-1.6,7.5-2.4,11.3c-0.2,1.2-0.8,1.8-2.1,1.7
		c-4-0.1-8.1-0.1-12.1,0c-1.1,0-1.4-0.2-1-1.4c3.9-16.7,6.3-33.9,12.2-50c0.6-1.6,1.4-2.5,3-2.9c12.7-3.6,25.5-4.1,38.2-0.3
		c2,0.6,2.8,1.1,2.6,3.5c-0.8,12.4-3.7,24.5-6.2,36.7c-0.8,4.2-1.8,8.5-2.6,12.7c-0.2,1-0.3,1.8-1.6,1.8
		C207.4,727.3,202.7,727.3,198.1,727.3z"/>
	<path fill="#FFFFFF" d="M234.7,713.3c9.5,0.4,8.3-0.8,6.7,8.4c-0.2,1.2-0.6,2.4-0.9,3.6c-0.3,1.1-1,1.7-2.3,2
		c-4.2,0.7-8.5,0.7-12.7,0c-1.3-0.2-1.7-0.7-1.5-2.2c0.3-2.5,0.8-4.9,1.2-7.3c0.6-3.5,2.6-4.5,5.6-4.4
		C232.1,713.3,233.4,713.3,234.7,713.3z"/>
</g>
</svg>
